<svg width="43" height="44" viewBox="0 0 43 44" fill="none" xmlns="http://www.w3.org/2000/svg">
<circle cx="21.8169" cy="21.9741" r="21.1401" fill="#587387"/>
<path d="M28.3174 26.9741H15.3174C15.1848 26.9741 15.0576 26.9214 14.9638 26.8277C14.8701 26.7339 14.8174 26.6067 14.8174 26.4741V17.9741C14.8174 17.8415 14.8701 17.7143 14.9638 17.6206C15.0576 17.5268 15.1848 17.4741 15.3174 17.4741H18.5474L19.4024 16.1991C19.4477 16.1303 19.5093 16.0738 19.5817 16.0346C19.6541 15.9953 19.735 15.9745 19.8174 15.9741H23.8174C23.8997 15.9745 23.9807 15.9953 24.0531 16.0346C24.1255 16.0738 24.1871 16.1303 24.2324 16.1991L25.0874 17.4741H28.3174C28.45 17.4741 28.5772 17.5268 28.6709 17.6206C28.7647 17.7143 28.8174 17.8415 28.8174 17.9741V26.4741C28.8174 26.6067 28.7647 26.7339 28.6709 26.8277C28.5772 26.9214 28.45 26.9741 28.3174 26.9741ZM15.8174 25.9741H27.8174V18.4741H24.8174C24.735 18.4737 24.6541 18.4529 24.5817 18.4137C24.5093 18.3744 24.4477 18.3179 24.4024 18.2491L23.5474 16.9741H20.0874L19.2324 18.2491C19.1871 18.3179 19.1255 18.3744 19.0531 18.4137C18.9807 18.4529 18.8997 18.4737 18.8174 18.4741H15.8174V25.9741Z" fill="white"/>
<path d="M21.8174 24.9741C21.224 24.9741 20.644 24.7982 20.1507 24.4685C19.6573 24.1389 19.2728 23.6703 19.0457 23.1222C18.8187 22.574 18.7593 21.9708 18.875 21.3889C18.9908 20.8069 19.2765 20.2724 19.6961 19.8528C20.1156 19.4332 20.6502 19.1475 21.2321 19.0318C21.8141 18.916 22.4173 18.9754 22.9654 19.2025C23.5136 19.4295 23.9821 19.8141 24.3118 20.3074C24.6414 20.8008 24.8174 21.3808 24.8174 21.9741C24.8174 22.7698 24.5013 23.5328 23.9387 24.0954C23.3761 24.6581 22.613 24.9741 21.8174 24.9741ZM21.8174 19.9741C21.4218 19.9741 21.0351 20.0914 20.7062 20.3112C20.3773 20.5309 20.121 20.8433 19.9696 21.2088C19.8182 21.5742 19.7786 21.9763 19.8558 22.3643C19.933 22.7523 20.1235 23.1086 20.4032 23.3883C20.6829 23.668 21.0392 23.8585 21.4272 23.9357C21.8152 24.0129 22.2173 23.9733 22.5827 23.8219C22.9482 23.6705 23.2606 23.4142 23.4803 23.0853C23.7001 22.7564 23.8174 22.3697 23.8174 21.9741C23.8174 21.4437 23.6067 20.935 23.2316 20.5599C22.8565 20.1848 22.3478 19.9741 21.8174 19.9741Z" fill="white"/>
</svg>
