<svg width="43" height="43" viewBox="0 0 43 43" fill="none" xmlns="http://www.w3.org/2000/svg">
<circle cx="21.1528" cy="21.5049" r="21.1401" fill="#587387"/>
<path d="M25.1529 20.0049H24.1529C24.1524 19.6072 23.9942 19.2259 23.713 18.9447C23.4318 18.6635 23.0505 18.5053 22.6529 18.5049V17.5049C23.3157 17.5056 23.9511 17.7693 24.4198 18.2379C24.8885 18.7066 25.1521 19.3421 25.1529 20.0049Z" fill="white"/>
<path d="M27.1529 20.0049H26.1529C26.1518 19.0769 25.7827 18.1873 25.1266 17.5311C24.4704 16.875 23.5808 16.5059 22.6529 16.5049V15.5049C23.8459 15.5062 24.9897 15.9807 25.8334 16.8244C26.677 17.668 27.1515 18.8118 27.1529 20.0049Z" fill="white"/>
<path d="M26.1529 28.0049H26.0679C16.2429 27.4399 14.8479 19.1499 14.6529 16.6199C14.6377 16.4235 14.6615 16.226 14.7227 16.0388C14.7839 15.8516 14.8814 15.6782 15.0096 15.5286C15.1378 15.3791 15.2942 15.2562 15.4699 15.1671C15.6455 15.078 15.837 15.0244 16.0335 15.0093C16.0731 15.0063 16.1129 15.0049 16.1529 15.0049H18.7879C18.9881 15.0047 19.1839 15.0646 19.3497 15.177C19.5155 15.2893 19.6438 15.4488 19.7179 15.6349L20.4779 17.5049C20.551 17.6867 20.5692 17.8859 20.5301 18.0779C20.491 18.2699 20.3963 18.4462 20.2579 18.5849L19.1929 19.6599C19.3585 20.6055 19.811 21.4774 20.489 22.1571C21.167 22.8369 22.0376 23.2917 22.9829 23.4599L24.0679 22.3849C24.2086 22.248 24.3865 22.1555 24.5795 22.1191C24.7724 22.0826 24.9719 22.1038 25.1529 22.1799L27.0379 22.9349C27.2211 23.0113 27.3775 23.1406 27.487 23.3062C27.5965 23.4718 27.6543 23.6663 27.6529 23.8649V26.5049C27.6529 26.9027 27.4948 27.2842 27.2135 27.5655C26.9322 27.8468 26.5507 28.0049 26.1529 28.0049ZM16.1529 16.0049C16.0872 16.0047 16.0221 16.0174 15.9614 16.0423C15.9006 16.0673 15.8454 16.1039 15.7988 16.1502C15.7523 16.1965 15.7152 16.2515 15.6899 16.3121C15.6646 16.3726 15.6515 16.4376 15.6513 16.5033C15.6513 16.5172 15.6518 16.531 15.6529 16.5449C15.8829 19.5049 17.3579 26.5049 26.1229 27.0049C26.1884 27.0088 26.2541 26.9998 26.3161 26.9784C26.3782 26.9569 26.4354 26.9235 26.4846 26.8799C26.5337 26.8364 26.5738 26.7835 26.6025 26.7245C26.6312 26.6655 26.648 26.6013 26.652 26.5358C26.6526 26.5255 26.6529 26.5152 26.6529 26.5049V23.8649L24.7679 23.1099L23.3329 24.5349L23.0929 24.5049C18.7429 23.9599 18.1529 19.6099 18.1529 19.5649L18.1229 19.3249L19.5429 17.8899L18.7929 16.0049H16.1529Z" fill="white"/>
</svg>
