<svg width="43" height="43" viewBox="0 0 43 43" fill="none" xmlns="http://www.w3.org/2000/svg">
<circle cx="21.8169" cy="21.6809" r="21.1401" fill="#7E909E"/>
<path d="M28.3174 26.6809H15.3174C15.1848 26.6809 15.0576 26.6282 14.9638 26.5345C14.8701 26.4407 14.8174 26.3135 14.8174 26.1809V17.6809C14.8174 17.5483 14.8701 17.4211 14.9638 17.3274C15.0576 17.2336 15.1848 17.1809 15.3174 17.1809H18.5474L19.4024 15.9059C19.4477 15.8371 19.5093 15.7806 19.5817 15.7413C19.6541 15.7021 19.735 15.6813 19.8174 15.6809H23.8174C23.8997 15.6813 23.9807 15.7021 24.0531 15.7413C24.1255 15.7806 24.1871 15.8371 24.2324 15.9059L25.0874 17.1809H28.3174C28.45 17.1809 28.5772 17.2336 28.6709 17.3274C28.7647 17.4211 28.8174 17.5483 28.8174 17.6809V26.1809C28.8174 26.3135 28.7647 26.4407 28.6709 26.5345C28.5772 26.6282 28.45 26.6809 28.3174 26.6809ZM15.8174 25.6809H27.8174V18.1809H24.8174C24.735 18.1805 24.6541 18.1597 24.5817 18.1205C24.5093 18.0812 24.4477 18.0247 24.4024 17.9559L23.5474 16.6809H20.0874L19.2324 17.9559C19.1871 18.0247 19.1255 18.0812 19.0531 18.1205C18.9807 18.1597 18.8997 18.1805 18.8174 18.1809H15.8174V25.6809Z" fill="white"/>
<path d="M21.8174 24.6809C21.224 24.6809 20.644 24.505 20.1507 24.1753C19.6573 23.8457 19.2728 23.3771 19.0457 22.829C18.8187 22.2808 18.7593 21.6776 18.875 21.0956C18.9908 20.5137 19.2765 19.9791 19.6961 19.5596C20.1156 19.14 20.6502 18.8543 21.2321 18.7386C21.8141 18.6228 22.4173 18.6822 22.9654 18.9093C23.5136 19.1363 23.9821 19.5208 24.3118 20.0142C24.6414 20.5075 24.8174 21.0876 24.8174 21.6809C24.8174 22.4766 24.5013 23.2396 23.9387 23.8022C23.3761 24.3648 22.613 24.6809 21.8174 24.6809ZM21.8174 19.6809C21.4218 19.6809 21.0351 19.7982 20.7062 20.018C20.3773 20.2377 20.121 20.5501 19.9696 20.9155C19.8182 21.281 19.7786 21.6831 19.8558 22.0711C19.933 22.4591 20.1235 22.8154 20.4032 23.0951C20.6829 23.3748 21.0392 23.5653 21.4272 23.6425C21.8152 23.7196 22.2173 23.68 22.5827 23.5287C22.9482 23.3773 23.2606 23.1209 23.4803 22.792C23.7001 22.4632 23.8174 22.0765 23.8174 21.6809C23.8174 21.1505 23.6067 20.6418 23.2316 20.2667C22.8565 19.8916 22.3478 19.6809 21.8174 19.6809Z" fill="white"/>
</svg>
