<svg width="49" height="49" viewBox="0 0 49 49" fill="none" xmlns="http://www.w3.org/2000/svg">
<path d="M28.4141 20.5251C29.1928 20.5251 29.9541 20.2777 30.6016 19.8142C31.2491 19.3506 31.7538 18.6917 32.0518 17.9208C32.3499 17.15 32.4278 16.3017 32.2759 15.4834C32.124 14.665 31.749 13.9133 31.1983 13.3233C30.6476 12.7333 29.946 12.3315 29.1822 12.1687C28.4184 12.0059 27.6267 12.0895 26.9072 12.4088C26.1878 12.7281 25.5728 13.2688 25.1402 13.9626C24.7075 14.6564 24.4766 15.472 24.4766 16.3064C24.4766 17.4253 24.8914 18.4983 25.6298 19.2895C26.3683 20.0807 27.3698 20.5251 28.4141 20.5251ZM28.4141 14.9001C28.6737 14.9001 28.9274 14.9826 29.1432 15.1371C29.3591 15.2917 29.5273 15.5113 29.6267 15.7682C29.726 16.0252 29.752 16.308 29.7013 16.5807C29.6507 16.8535 29.5257 17.1041 29.3421 17.3008C29.1586 17.4974 28.9247 17.6314 28.6701 17.6856C28.4155 17.7399 28.1516 17.712 27.9118 17.6056C27.672 17.4992 27.467 17.3189 27.3228 17.0877C27.1785 16.8564 27.1016 16.5845 27.1016 16.3064C27.1016 15.9334 27.2398 15.5758 27.486 15.312C27.7321 15.0483 28.066 14.9001 28.4141 14.9001Z" fill="black" fill-opacity="0.3"/>
<path d="M37.6016 6.46265H11.3516C10.6554 6.46265 9.98769 6.75896 9.49541 7.28641C9.00312 7.81385 8.72656 8.52923 8.72656 9.27515V37.4001C8.72656 38.1461 9.00312 38.8614 9.49541 39.3889C9.98769 39.9163 10.6554 40.2126 11.3516 40.2126H37.6016C38.2978 40.2126 38.9654 39.9163 39.4577 39.3889C39.95 38.8614 40.2266 38.1461 40.2266 37.4001V9.27515C40.2266 8.52923 39.95 7.81385 39.4577 7.28641C38.9654 6.75896 38.2978 6.46265 37.6016 6.46265ZM37.6016 37.4001H11.3516V28.9626L17.9141 21.9314L25.2509 29.7923C25.7428 30.3162 26.4081 30.6102 27.1016 30.6102C27.795 30.6102 28.4604 30.3162 28.9522 29.7923L31.0391 27.5564L37.6016 34.5876V37.4001ZM37.6016 30.608L32.8897 25.5595C32.3979 25.0357 31.7325 24.7417 31.0391 24.7417C30.3456 24.7417 29.6803 25.0357 29.1884 25.5595L27.1016 27.7955L19.7647 19.9345C19.2729 19.4107 18.6075 19.1167 17.9141 19.1167C17.2206 19.1167 16.5553 19.4107 16.0634 19.9345L11.3516 24.983V9.27515H37.6016V30.608Z" fill="black" fill-opacity="0.3"/>
</svg>
