<svg width="43" height="44" viewBox="0 0 43 44" fill="none" xmlns="http://www.w3.org/2000/svg">
<circle cx="21.1528" cy="22.0098" r="21.1401" fill="#7E909E"/>
<path d="M25.1529 20.5098H24.1529C24.1524 20.1121 23.9942 19.7308 23.713 19.4496C23.4318 19.1684 23.0505 19.0102 22.6529 19.0098V18.0098C23.3157 18.0105 23.9511 18.2742 24.4198 18.7428C24.8885 19.2115 25.1521 19.847 25.1529 20.5098Z" fill="white"/>
<path d="M27.1529 20.5098H26.1529C26.1518 19.5818 25.7827 18.6922 25.1266 18.036C24.4704 17.3799 23.5808 17.0108 22.6529 17.0098V16.0098C23.8459 16.0111 24.9897 16.4856 25.8334 17.3292C26.677 18.1729 27.1515 19.3167 27.1529 20.5098Z" fill="white"/>
<path d="M26.1529 28.5098H26.0679C16.2429 27.9448 14.8479 19.6548 14.6529 17.1248C14.6377 16.9284 14.6615 16.7309 14.7227 16.5437C14.7839 16.3564 14.8814 16.1831 15.0096 16.0335C15.1378 15.884 15.2942 15.7611 15.4699 15.672C15.6455 15.5829 15.837 15.5293 16.0335 15.5142C16.0731 15.5112 16.1129 15.5098 16.1529 15.5098H18.7879C18.9881 15.5096 19.1839 15.5695 19.3497 15.6818C19.5155 15.7942 19.6438 15.9537 19.7179 16.1398L20.4779 18.0098C20.551 18.1915 20.5692 18.3908 20.5301 18.5828C20.491 18.7748 20.3963 18.9511 20.2579 19.0898L19.1929 20.1648C19.3585 21.1104 19.811 21.9823 20.489 22.662C21.167 23.3418 22.0376 23.7966 22.9829 23.9648L24.0679 22.8898C24.2086 22.7528 24.3865 22.6604 24.5795 22.6239C24.7724 22.5875 24.9719 22.6086 25.1529 22.6848L27.0379 23.4398C27.2211 23.5162 27.3775 23.6455 27.487 23.8111C27.5965 23.9767 27.6543 24.1712 27.6529 24.3698V27.0098C27.6529 27.4076 27.4948 27.7891 27.2135 28.0704C26.9322 28.3517 26.5507 28.5098 26.1529 28.5098ZM16.1529 16.5098C16.0872 16.5096 16.0221 16.5223 15.9614 16.5472C15.9006 16.5721 15.8454 16.6088 15.7988 16.6551C15.7523 16.7014 15.7152 16.7564 15.6899 16.8169C15.6646 16.8775 15.6515 16.9425 15.6513 17.0082C15.6513 17.0221 15.6518 17.0359 15.6529 17.0498C15.8829 20.0098 17.3579 27.0098 26.1229 27.5098C26.1884 27.5137 26.2541 27.5047 26.3161 27.4833C26.3782 27.4618 26.4354 27.4284 26.4846 27.3848C26.5337 27.3412 26.5738 27.2884 26.6025 27.2294C26.6312 27.1703 26.648 27.1062 26.652 27.0407C26.6526 27.0304 26.6529 27.0201 26.6529 27.0098V24.3698L24.7679 23.6148L23.3329 25.0398L23.0929 25.0098C18.7429 24.4648 18.1529 20.1148 18.1529 20.0698L18.1229 19.8298L19.5429 18.3948L18.7929 16.5098H16.1529Z" fill="white"/>
</svg>
